<svg id="Capa_1" enable-background="new 0 0 511.28 511.28" height="512" viewBox="0 0 511.28 511.28" width="512" xmlns="http://www.w3.org/2000/svg"><g><path d="m500.704 299.196c-5.371-5.392-12.135-8.891-19.477-10.157-10.295-39.92-46.553-68.331-88.287-68.331h-277.164l-32.855-82.766c-2.358-5.944-8.015-9.784-14.411-9.784h-53.01c-8.547 0-15.5 6.953-15.5 15.5v164.96c0 28.949 23.551 52.5 52.5 52.5h48.26c4.142 0 7.5-3.358 7.5-7.5s-3.358-7.5-7.5-7.5h-48.26c-20.678 0-37.5-16.822-37.5-37.5v-105.46h77.671l10.042 25.297c1.756 4.406 5.951 7.252 10.687 7.252h279.54c15.102 0 29.339 4.463 41.334 12.22h-32.014c-6.341 0-11.5 5.159-11.5 11.5v32.51c0 6.341 5.159 11.5 11.5 11.5h71.879c.31.04.624.069.943.07 5.661.021 10.986 2.249 14.995 6.273 4 4.016 6.204 9.353 6.204 15.027 0 11.289-8.818 20.633-20.075 21.272-.147.008-.293.021-.438.038h-169.203v-13h32.765c12.319 0 22.341-10.022 22.341-22.341s-10.022-22.341-22.341-22.341h-167.38c-12.319 0-22.341 10.022-22.341 22.341s10.022 22.341 22.341 22.341h31.779c-2.476 3.857-4.16 8.265-4.82 13h-63.149c-4.142 0-7.5 3.358-7.5 7.5s3.358 7.5 7.5 7.5h64.577c4.376 12.783 16.503 22.002 30.75 22.002h63.979c6.341 0 11.5-5.159 11.5-11.5v-10.502h170.064c.472 0 .934-.044 1.381-.129 18.732-1.555 33.269-17.266 33.269-36.181 0-9.668-3.756-18.764-10.576-25.611zm-485.204-156.037h53.01c.208 0 .393.124.469.317l5.829 14.683h-59.808v-14.5c0-.276.224-.5.5-.5zm-.5 45v-15h65.763l5.954 15zm390.76 74.77h45.524c6.221 7.393 11.076 16.012 14.142 25.51h-59.666zm-241.152 47.849c0-4.048 3.293-7.341 7.341-7.341h167.381c4.048 0 7.341 3.293 7.341 7.341s-3.293 7.341-7.341 7.341h-167.38c-4.048 0-7.342-3.293-7.342-7.341zm48.979 39.843c0-9.649 7.851-17.5 17.5-17.5h34.903v35h-34.903c-9.649 0-17.5-7.85-17.5-17.5zm77.978 17.5h-10.575v-35h10.575z"/><path d="m370.757 265.426v-10c0-4.142-3.358-7.5-7.5-7.5s-7.5 3.358-7.5 7.5v10c0 4.142 3.358 7.5 7.5 7.5s7.5-3.358 7.5-7.5z"/><path d="m195.757 265.426v-10c0-4.142-3.358-7.5-7.5-7.5s-7.5 3.358-7.5 7.5v10c0 4.142 3.358 7.5 7.5 7.5s7.5-3.358 7.5-7.5z"/><path d="m335.757 265.426v-10c0-4.142-3.358-7.5-7.5-7.5s-7.5 3.358-7.5 7.5v10c0 4.142 3.358 7.5 7.5 7.5s7.5-3.358 7.5-7.5z"/><path d="m160.757 265.426v-10c0-4.142-3.358-7.5-7.5-7.5s-7.5 3.358-7.5 7.5v10c0 4.142 3.358 7.5 7.5 7.5s7.5-3.358 7.5-7.5z"/><path d="m300.757 265.426v-10c0-4.142-3.358-7.5-7.5-7.5s-7.5 3.358-7.5 7.5v10c0 4.142 3.358 7.5 7.5 7.5s7.5-3.358 7.5-7.5z"/><path d="m118.257 247.926c-4.142 0-7.5 3.358-7.5 7.5v10c0 4.142 3.358 7.5 7.5 7.5s7.5-3.358 7.5-7.5v-10c0-4.142-3.358-7.5-7.5-7.5z"/><path d="m265.757 265.426v-10c0-4.142-3.358-7.5-7.5-7.5s-7.5 3.358-7.5 7.5v10c0 4.142 3.358 7.5 7.5 7.5s7.5-3.358 7.5-7.5z"/><path d="m230.757 265.426v-10c0-4.142-3.358-7.5-7.5-7.5s-7.5 3.358-7.5 7.5v10c0 4.142 3.358 7.5 7.5 7.5s7.5-3.358 7.5-7.5z"/><path d="m40.5 295.117h25.409c4.142 0 7.5-3.358 7.5-7.5s-3.358-7.5-7.5-7.5h-25.409c-4.142 0-7.5 3.358-7.5 7.5s3.358 7.5 7.5 7.5z"/><path d="m40.5 328.117h50.819c4.142 0 7.5-3.358 7.5-7.5s-3.358-7.5-7.5-7.5h-50.819c-4.142 0-7.5 3.358-7.5 7.5s3.358 7.5 7.5 7.5z"/></g></svg>