<?xml version="1.0"?>
<svg xmlns="http://www.w3.org/2000/svg" id="Layer_1" data-name="Layer 1" viewBox="0 0 128 128" width="512" height="512"><title>SMART HOME SEARCH</title><path d="M67.627,63.339H46.748a1.25,1.25,0,0,0-1.25,1.25V79.167a1.25,1.25,0,0,0,2.5,0V65.84H66.377V84.219H32.25V45.526L57.187,32.383,82.125,45.526V67.667a1.25,1.25,0,0,0,2.5,0v-22.9a1.25,1.25,0,0,0-.667-1.106L57.77,29.864a1.25,1.25,0,0,0-1.166,0l-26.187,13.8a1.25,1.25,0,0,0-.667,1.106v40.7A1.25,1.25,0,0,0,31,86.719H67.627a1.25,1.25,0,0,0,1.25-1.25V64.589A1.25,1.25,0,0,0,67.627,63.339Z"/><path d="M87.568,83.517a6.3,6.3,0,0,0-6.292-6.291,1.25,1.25,0,0,0,0,2.5,3.8,3.8,0,0,1,3.792,3.791,1.25,1.25,0,1,0,2.5,0Z"/><path d="M97.773,96.018,89.952,89.86a10.752,10.752,0,1,0-1.7,1.841l7.979,6.282a1.25,1.25,0,0,0,1.547-1.965Zm-24.759-12.5a8.262,8.262,0,1,1,8.262,8.263A8.272,8.272,0,0,1,73.015,83.517Z"/></svg>
